<svg xmlns="http://www.w3.org/2000/svg" width="148" height="40" viewBox="0 0 148 40">
  <!-- M -->
  <path d="M4 8 L4 32 L10 32 L10 18 L18 28 L26 18 L26 32 L32 32 L32 8 L26 8 L18 20 L10 8 Z" fill="#045FD0"/>
  <!-- O -->
  <path d="M36 20 C36 12 42 7 50 7 C58 7 64 12 64 20 C64 28 58 33 50 33 C42 33 36 28 36 20Z" fill="none" stroke="#045FD0" stroke-width="5.5"/>
  <!-- V -->
  <path d="M67 8 L77 30 L87 8" fill="none" stroke="#045FD0" stroke-width="5.5" stroke-linecap="square" stroke-linejoin="miter"/>
  <!-- E -->
  <path d="M91 8 L107 8 M91 8 L91 32 M91 20 L104 20 M91 32 L107 32" fill="none" stroke="#045FD0" stroke-width="5.5" stroke-linecap="square"/>
  <!-- Dash line after E -->
  <path d="M110 20 L120 20" stroke="#045FD0" stroke-width="5.5" stroke-linecap="square"/>
  <!-- Sogn — orange, smaller, below right -->
  <text x="91" y="40" font-family="Inter, DM Sans, sans-serif" font-size="11" font-weight="600" fill="#FF8421" letter-spacing="0.5">Sogn</text>
</svg>
